2014048_C4_01_grf
version=1
nRows=37
nColumns=19
inDegrees=no
endheader
time	ground_force_1_vx	ground_force_1_vy	ground_force_1_vz	ground_force_1_px	ground_force_1_py	ground_force_1_pz	ground_force_1_mx	ground_force_1_my	ground_force_1_mz	ground_force_2_vx	ground_force_2_vy	ground_force_2_vz	ground_force_2_px	ground_force_2_py	ground_force_2_pz	ground_force_2_mx	ground_force_2_my	ground_force_2_mz
      0.46500000	      3.09946843	    532.53106773	    -35.22154056	      0.34654923	     -0.00200000	     -0.13789360	     -0.00000000	      1.40190974	      0.00000000	      0.00000000	      0.00000000	      0.00000000	      0.00000000	      0.00000000	      0.00000000	      0.00000000	      0.00000000	      0.00000000
      0.46600000	      3.27541579	    533.08343142	    -35.31965464	      0.34690512	     -0.00200000	     -0.13780824	      0.00000000	      1.40672494	      0.00000000	      0.00000000	      0.00000000	      0.00000000	      0.00000000	      0.00000000	      0.00000000	      0.00000000	      0.00000000	      0.00000000
      0.46700000	      3.44943982	    533.63373503	    -35.41945405	      0.34726445	     -0.00200000	     -0.13772177	      0.00000000	      1.41128334	      0.00000000	      0.00000000	      0.00000000	      0.00000000	      0.00000000	      0.00000000	      0.00000000	      0.00000000	      0.00000000	      0.00000000
      0.46800000	      3.62189077	    534.18216109	    -35.52055210	      0.34762664	     -0.00200000	     -0.13763437	      0.00000000	      1.41563650	      0.00000000	      0.00000000	      0.00000000	      0.00000000	      0.00000000	      0.00000000	      0.00000000	      0.00000000	      0.00000000	      0.00000000
      0.46900000	      3.79232420	    534.72805768	    -35.62322147	      0.34799249	     -0.00200000	     -0.13754581	      0.00000000	      1.41973600	      0.00000000	      0.00000000	      0.00000000	      0.00000000	      0.00000000	      0.00000000	      0.00000000	      0.00000000	      0.00000000	      0.00000000
      0.47000000	      3.96109717	    535.27176380	    -35.72710678	      0.34836134	     -0.00200000	     -0.13745626	      0.00000000	      1.42363374	      0.00000000	      0.00000000	      0.00000000	      0.00000000	      0.00000000	      0.00000000	      0.00000000	      0.00000000	      0.00000000	      0.00000000
      0.47100000	      4.12773024	    535.81260145	    -35.83245389	      0.34873403	     -0.00200000	     -0.13736545	      0.00000000	      1.42728450	      0.00000000	      0.00000000	      0.00000000	      0.00000000	      0.00000000	      0.00000000	      0.00000000	      0.00000000	      0.00000000	      0.00000000
      0.47200000	      4.29259934	    536.35109216	    -35.93892753	      0.34910986	     -0.00200000	     -0.13727360	      0.00000000	      1.43074071	      0.00000000	      0.00000000	      0.00000000	      0.00000000	      0.00000000	      0.00000000	      0.00000000	      0.00000000	      0.00000000	      0.00000000
      0.47300000	      4.45519402	    536.88661009	    -36.04674116	      0.34948968	     -0.00200000	     -0.13718044	      0.00000000	      1.43396085	      0.00000000	      0.00000000	      0.00000000	      0.00000000	      0.00000000	      0.00000000	      0.00000000	      0.00000000	      0.00000000	      0.00000000
      0.47400000	      4.61591408	    537.41972893	    -36.15557626	      0.34987276	     -0.00200000	     -0.13708622	      0.00000000	      1.43699567	      0.00000000	      0.00000000	      0.00000000	      0.00000000	      0.00000000	      0.00000000	      0.00000000	      0.00000000	      0.00000000	      0.00000000
      0.47500000	      4.77421554	    537.95003146	    -36.26561724	      0.35025994	     -0.00200000	     -0.13699066	      0.00000000	      1.43980514	      0.00000000	      0.00000000	      0.00000000	      0.00000000	      0.00000000	      0.00000000	      0.00000000	      0.00000000	      0.00000000	      0.00000000
      0.47600000	      4.93051289	    538.47803921	    -36.37656346	      0.35065047	     -0.00200000	     -0.13689399	      0.00000000	      1.44243855	      0.00000000	      0.00000000	      0.00000000	      0.00000000	      0.00000000	      0.00000000	      0.00000000	      0.00000000	      0.00000000	      0.00000000
      0.47700000	      5.08420786	    539.00336102	    -36.48857139	      0.35104522	     -0.00200000	     -0.13679599	      0.00000000	      1.44486199	      0.00000000	      0.00000000	      0.00000000	      0.00000000	      0.00000000	      0.00000000	      0.00000000	      0.00000000	      0.00000000	      0.00000000
      0.47800000	      5.23573905	    539.52654451	    -36.60137281	      0.35144342	     -0.00200000	     -0.13669688	      0.00000000	      1.44712522	      0.00000000	      0.00000000	      0.00000000	      0.00000000	      0.00000000	      0.00000000	      0.00000000	      0.00000000	      0.00000000	      0.00000000
      0.47900000	      5.38445895	    540.04722461	    -36.71509959	      0.35184595	     -0.00200000	     -0.13659645	      0.00000000	      1.44920102	      0.00000000	      0.00000000	      0.00000000	      0.00000000	      0.00000000	      0.00000000	      0.00000000	      0.00000000	      0.00000000	      0.00000000
      0.48000000	      5.53084407	    540.56587070	    -36.82952598	      0.35225203	     -0.00200000	     -0.13649491	      0.00000000	      1.45113335	      0.00000000	      0.00000000	      0.00000000	      0.00000000	      0.00000000	      0.00000000	      0.00000000	      0.00000000	      0.00000000	      0.00000000
      0.48100000	      5.67420186	    541.08214378	    -36.94478050	      0.35266259	     -0.00200000	     -0.13639203	      0.00000000	      1.45289449	      0.00000000	      0.00000000	      0.00000000	      0.00000000	      0.00000000	      0.00000000	      0.00000000	      0.00000000	      0.00000000	      0.00000000
      0.48200000	      5.81504968	    541.59659147	    -37.06066757	      0.35307675	     -0.00200000	     -0.13628805	      0.00000000	      1.45452303	      0.00000000	      0.00000000	      0.00000000	      0.00000000	      0.00000000	      0.00000000	      0.00000000	      0.00000000	      0.00000000	      0.00000000
      0.48300000	      5.95265182	    542.10890085	    -37.17731237	      0.35349550	     -0.00200000	     -0.13618268	      0.00000000	      1.45598900	      0.00000000	      0.00000000	      0.00000000	      0.00000000	      0.00000000	      0.00000000	      0.00000000	      0.00000000	      0.00000000	      0.00000000
      0.48400000	      6.08757637	    542.61969775	    -37.29453385	      0.35391792	     -0.00200000	     -0.13607621	      0.00000000	      1.45732948	      0.00000000	      0.00000000	      0.00000000	      0.00000000	      0.00000000	      0.00000000	      0.00000000	      0.00000000	      0.00000000	      0.00000000
      0.48500000	      6.21905511	    543.12877357	    -37.41244487	      0.35434499	     -0.00200000	     -0.13596837	      0.00000000	      1.45851626	      0.00000000	      0.00000000	      0.00000000	      0.00000000	      0.00000000	      0.00000000	      0.00000000	      0.00000000	      0.00000000	      0.00000000
      0.48600000	      6.34769867	    543.63664985	    -37.53088564	      0.35477584	     -0.00200000	     -0.13585946	      0.00000000	      1.45958359	      0.00000000	      0.00000000	      0.00000000	      0.00000000	      0.00000000	      0.00000000	      0.00000000	      0.00000000	      0.00000000	      0.00000000
      0.48700000	      6.47270596	    544.14330050	    -37.64996231	      0.35521142	     -0.00200000	     -0.13574922	      0.00000000	      1.46050481	      0.00000000	      0.00000000	      0.00000000	      0.00000000	      0.00000000	      0.00000000	      0.00000000	      0.00000000	      0.00000000	      0.00000000
      0.48800000	      6.59474269	    544.64911669	    -37.76954412	      0.35565082	     -0.00200000	     -0.13563791	      0.00000000	      1.46130867	      0.00000000	      0.00000000	      0.00000000	      0.00000000	      0.00000000	      0.00000000	      0.00000000	      0.00000000	      0.00000000	      0.00000000
      0.48900000	      6.71300821	    545.15415058	    -37.88973391	      0.35609500	     -0.00200000	     -0.13552524	      0.00000000	      1.46196534	      0.00000000	      0.00000000	      0.00000000	      0.00000000	      0.00000000	      0.00000000	      0.00000000	      0.00000000	      0.00000000	      0.00000000
      0.49000000	      6.82822061	    545.65881938	    -38.01040202	      0.35654301	     -0.00200000	     -0.13541152	      0.00000000	      1.46250200	      0.00000000	      0.00000000	      0.00000000	      0.00000000	      0.00000000	      0.00000000	      0.00000000	      0.00000000	      0.00000000	      0.00000000
      0.49100000	      6.93958027	    546.16333172	    -38.13166022	      0.35699582	     -0.00200000	     -0.13529649	      0.00000000	      1.46288582	      0.00000000	      0.00000000	      0.00000000	      0.00000000	      0.00000000	      0.00000000	      0.00000000	      0.00000000	      0.00000000	      0.00000000
      0.49200000	      7.04783443	    546.66784406	    -38.25338334	      0.35745247	     -0.00200000	     -0.13518041	      0.00000000	      1.46314588	      0.00000000	      0.00000000	      0.00000000	      0.00000000	      0.00000000	      0.00000000	      0.00000000	      0.00000000	      0.00000000	      0.00000000
      0.49300000	      7.15218158	    547.17279971	    -38.37567642	      0.35791392	     -0.00200000	     -0.13506310	      0.00000000	      1.46325020	      0.00000000	      0.00000000	      0.00000000	      0.00000000	      0.00000000	      0.00000000	      0.00000000	      0.00000000	      0.00000000	      0.00000000
      0.49400000	      7.25338720	    547.67832905	    -38.49842548	      0.35837920	     -0.00200000	     -0.13494479	      0.00000000	      1.46322994	      0.00000000	      0.00000000	      0.00000000	      0.00000000	      0.00000000	      0.00000000	      0.00000000	      0.00000000	      0.00000000	      0.00000000
      0.49500000	      7.35065751	    548.18484932	    -38.62174004	      0.35884927	     -0.00200000	     -0.13482526	      0.00000000	      1.46305309	      0.00000000	      0.00000000	      0.00000000	      0.00000000	      0.00000000	      0.00000000	      0.00000000	      0.00000000	      0.00000000	      0.00000000
      0.49600000	      7.44477874	    548.69251698	    -38.74550611	      0.35932314	     -0.00200000	     -0.13470475	      0.00000000	      1.46275114	      0.00000000	      0.00000000	      0.00000000	      0.00000000	      0.00000000	      0.00000000	      0.00000000	      0.00000000	      0.00000000	      0.00000000
      0.49700000	      7.53496382	    549.20187965	    -38.86983320	      0.35980172	     -0.00200000	     -0.13458300	      0.00000000	      1.46229239	      0.00000000	      0.00000000	      0.00000000	      0.00000000	      0.00000000	      0.00000000	      0.00000000	      0.00000000	      0.00000000	      0.00000000
      0.49800000	      7.62200318	    549.71285909	    -38.99461180	      0.36028406	     -0.00200000	     -0.13446024	      0.00000000	      1.46170841	      0.00000000	      0.00000000	      0.00000000	      0.00000000	      0.00000000	      0.00000000	      0.00000000	      0.00000000	      0.00000000	      0.00000000
      0.49900000	      7.70511730	    550.22618547	    -39.11995813	      0.36077105	     -0.00200000	     -0.13433622	      0.00000000	      1.46096957	      0.00000000	      0.00000000	      0.00000000	      0.00000000	      0.00000000	      0.00000000	      0.00000000	      0.00000000	      0.00000000	      0.00000000
      0.50000000	      7.78510412	    550.74170232	    -39.24576044	      0.36126172	     -0.00200000	     -0.13421120	      0.00000000	      1.46010838	      0.00000000	      0.00000000	      0.00000000	      0.00000000	      0.00000000	      0.00000000	      0.00000000	      0.00000000	      0.00000000	      0.00000000
      0.50100000	      7.86120719	    551.26019195	    -39.37215284	      0.36175698	     -0.00200000	     -0.13408491	      0.00000000	      1.45909552	      0.00000000	      0.00000000	      0.00000000	      0.00000000	      0.00000000	      0.00000000	      0.00000000	      0.00000000	      0.00000000	      0.00000000
